<svg width="52" height="52" viewBox="0 0 52 52" fill="none" xmlns="http://www.w3.org/2000/svg">
<rect x="3.25" y="3.25" width="45.5" height="45.5" rx="22.75" fill="#1275B1"/>
<path d="M20.5052 15.7497C20.5052 17.2684 19.1888 18.4995 17.5651 18.4995C15.9413 18.4995 14.625 17.2684 14.625 15.7497C14.625 14.2311 15.9413 13 17.5651 13C19.1888 13 20.5052 14.2311 20.5052 15.7497Z" fill="white"/>
<path d="M15.0271 20.5207H20.0528V35.75H15.0271V20.5207Z" fill="white"/>
<path d="M28.1443 20.5207H23.1186V35.75H28.1443C28.1443 35.75 28.1443 30.9556 28.1443 27.9579C28.1443 26.1586 28.7587 24.3515 31.2101 24.3515C33.9804 24.3515 33.9637 26.7061 33.9508 28.5303C33.9339 30.9147 33.9742 33.348 33.9742 35.75H39V27.7123C38.9574 22.58 37.6201 20.2151 33.2204 20.2151C30.6075 20.2151 28.9879 21.4013 28.1443 22.4745V20.5207Z" fill="white"/>
</svg>
