<?xml version="1.0" standalone="no"?>
<!DOCTYPE svg PUBLIC "-//W3C//DTD SVG 20010904//EN"
 "http://www.w3.org/TR/2001/REC-SVG-20010904/DTD/svg10.dtd">
<svg version="1.0" xmlns="http://www.w3.org/2000/svg"
 width="500.000000pt" height="500.000000pt" viewBox="0 0 500.000000 500.000000"
 preserveAspectRatio="xMidYMid meet">

<g transform="translate(0.000000,500.000000) scale(0.100000,-0.100000)"
fill="#000000" stroke="none">
<path d="M2430 4273 c-73 -46 -238 -126 -325 -157 -173 -61 -332 -95 -545
-117 -63 -6 -121 -16 -127 -22 -16 -12 -18 -526 -3 -654 8 -72 13 -87 49 -135
23 -29 50 -80 61 -113 89 -262 84 -250 118 -253 l31 -3 -26 53 c-44 91 -77
198 -102 338 -19 104 -34 412 -26 543 4 70 8 127 9 127 18 1 236 32 276 39
184 32 409 110 587 203 l93 48 117 -59 c235 -117 447 -179 759 -222 l82 -11 6
-45 c15 -113 2 -463 -24 -623 -21 -125 -52 -232 -96 -328 -13 -29 -24 -55 -24
-57 0 -3 11 -5 25 -5 30 0 33 5 85 165 51 155 60 174 108 227 l37 41 3 357 c3
288 1 358 -10 366 -7 6 -65 16 -128 23 -328 34 -592 115 -835 255 -53 31 -102
56 -108 55 -7 0 -37 -16 -67 -36z"/>
<path d="M2424 3881 c-116 -53 -136 -213 -38 -304 80 -74 214 -46 263 56 77
158 -69 319 -225 248z"/>
<path d="M2011 3553 c-48 -24 -71 -67 -71 -132 0 -50 3 -57 40 -93 37 -35 46
-38 96 -38 48 0 59 4 91 33 31 29 37 41 41 90 3 45 0 62 -17 90 -38 62 -113
83 -180 50z"/>
<path d="M2370 3470 c-14 -4 -44 -17 -67 -29 -35 -17 -43 -27 -43 -49 0 -15
-13 -48 -28 -72 l-28 -45 42 -26 c23 -15 53 -42 67 -61 55 -72 57 -87 57 -514
0 -358 2 -400 20 -476 12 -51 20 -118 20 -174 0 -71 3 -93 14 -97 16 -6 18 4
31 138 3 33 15 147 25 254 11 107 20 203 20 215 0 12 4 16 9 11 5 -6 14 -62
20 -125 6 -63 16 -160 22 -215 6 -55 14 -136 18 -180 l7 -80 8 95 c8 96 24
180 45 235 14 37 93 155 103 155 5 0 8 162 8 360 0 223 4 360 10 360 5 0 19
-33 30 -72 84 -288 167 -478 209 -478 19 0 92 62 88 75 -15 37 -93 296 -123
405 -65 240 -101 293 -234 358 -63 30 -84 36 -130 33 -109 -6 -135 -6 -165 0
-16 4 -41 3 -55 -1z"/>
<path d="M2015 3233 c-47 -7 -87 -29 -126 -70 -40 -41 -51 -71 -69 -178 -7
-38 -16 -89 -21 -112 -19 -86 -13 -112 34 -154 l42 -39 11 42 c7 24 19 83 28
133 9 49 21 94 27 100 11 10 9 -68 -7 -255 l-5 -65 97 -45 c112 -52 194 -106
245 -161 19 -22 38 -39 41 -39 9 0 10 580 2 652 -8 73 -53 145 -104 169 -37
18 -144 30 -195 22z"/>
<path d="M1368 3193 c-9 -2 -20 -13 -23 -24 -15 -46 80 -514 132 -654 78 -209
599 -645 945 -791 76 -32 79 -33 120 -18 131 46 481 266 600 376 7 7 47 42 88
78 79 69 170 162 220 225 32 40 90 153 90 175 0 7 8 43 19 79 10 36 24 93 31
126 7 33 16 74 20 90 4 17 13 64 20 105 6 41 16 101 21 133 12 70 6 95 -27
103 -57 14 -90 -36 -144 -216 -17 -58 -35 -115 -41 -128 -12 -31 -12 -69 2
-74 17 -6 23 -84 9 -118 -13 -32 -143 -159 -261 -256 -52 -42 -73 -54 -81 -46
-12 12 7 33 199 209 58 53 103 103 107 118 8 33 -7 61 -43 80 -41 21 -78 3
-171 -85 -60 -56 -101 -83 -207 -136 -162 -82 -215 -121 -269 -201 -58 -84
-75 -151 -82 -311 l-5 -133 -68 -35 -69 -34 -71 37 -72 38 -3 120 c-6 264 -83
391 -300 496 -136 65 -169 87 -268 172 -44 37 -90 70 -103 73 -57 15 -110 -29
-97 -80 4 -16 47 -64 107 -119 193 -177 212 -196 199 -209 -8 -8 -34 8 -104
67 -124 105 -216 194 -234 227 -18 35 -18 89 1 114 17 22 19 53 6 86 -5 13
-19 57 -31 98 -40 133 -73 211 -98 231 -25 19 -32 21 -64 12z"/>
<path d="M1286 1427 c-53 -30 -78 -79 -73 -140 5 -59 36 -95 116 -132 77 -36
111 -71 111 -111 0 -51 -30 -79 -85 -79 -43 0 -51 4 -81 39 -19 22 -34 45 -34
53 0 7 -9 13 -20 13 -17 0 -20 -7 -20 -49 0 -33 6 -56 19 -72 18 -22 27 -24
113 -24 144 0 198 42 198 155 0 70 -22 98 -110 141 -114 55 -146 105 -101 160
14 18 29 24 59 24 45 0 74 -20 92 -66 21 -50 40 -37 40 30 0 57 -1 59 -31 70
-55 19 -149 13 -193 -12z"/>
<path d="M2761 1428 c-4 -13 -39 -117 -76 -231 -66 -204 -82 -237 -111 -237
-8 0 -14 -8 -14 -17 0 -16 9 -18 75 -15 53 3 75 7 75 17 0 7 -9 15 -20 18 -23
6 -24 17 -6 77 l13 45 81 3 80 3 17 -51 c19 -57 15 -80 -15 -80 -11 0 -20 -7
-20 -15 0 -16 11 -17 150 -19 54 -1 65 2 68 17 2 11 -3 17 -15 17 -11 0 -24 5
-31 12 -6 6 -46 116 -89 245 l-77 233 -38 0 c-31 0 -40 -5 -47 -22z m52 -181
c15 -46 27 -89 27 -95 0 -8 -20 -12 -60 -12 -40 0 -60 4 -60 12 0 6 9 37 19
67 10 31 22 68 25 84 4 15 10 27 14 27 4 0 20 -37 35 -83z"/>
<path d="M3766 1430 c-55 -28 -84 -57 -113 -115 -68 -132 -20 -308 100 -371
42 -21 151 -29 206 -14 65 17 91 48 91 109 0 43 -2 49 -18 44 -10 -2 -24 -20
-31 -38 -17 -49 -55 -75 -108 -75 -95 0 -151 67 -160 192 -7 98 9 153 58 200
71 68 158 58 199 -22 21 -40 46 -50 44 -17 0 10 -1 35 -2 56 -2 37 -4 40 -49
55 -65 22 -168 20 -217 -4z"/>
<path d="M440 1427 c0 -7 10 -17 23 -22 22 -10 22 -14 25 -200 1 -104 0 -200
-3 -212 -3 -12 -14 -25 -25 -28 -11 -3 -20 -13 -20 -21 0 -11 20 -14 100 -14
79 0 100 3 100 14 0 8 -11 17 -25 20 l-25 6 0 215 c0 205 1 214 20 220 11 3
20 13 20 21 0 11 -19 14 -95 14 -70 0 -95 -3 -95 -13z"/>
<path d="M680 1427 c0 -8 11 -19 25 -25 l25 -12 0 -210 0 -210 -25 -6 c-14 -3
-25 -13 -25 -23 0 -14 12 -16 77 -14 80 1 105 15 60 32 -13 5 -27 19 -30 30
-9 36 -8 323 1 317 5 -3 27 -31 48 -63 179 -265 216 -313 243 -313 l27 0 2
226 c2 227 6 254 38 254 8 0 14 7 14 15 0 12 -15 15 -75 15 -78 0 -96 -12 -56
-37 18 -11 20 -26 23 -158 2 -80 1 -145 -2 -144 -3 0 -55 75 -116 167 l-111
167 -71 3 c-56 2 -72 0 -72 -11z"/>
<path d="M1590 1425 c0 -8 4 -15 9 -15 5 0 17 -7 25 -16 14 -13 16 -42 14
-187 -2 -192 4 -216 64 -259 29 -20 45 -23 120 -23 94 0 119 11 162 69 19 25
21 44 24 194 3 193 5 208 32 217 11 3 20 13 20 21 0 11 -16 14 -70 14 -73 0
-90 -13 -50 -38 19 -11 20 -23 20 -180 0 -149 -2 -170 -20 -200 -36 -59 -122
-71 -169 -24 -28 27 -28 28 -34 200 -3 95 -4 179 -1 186 3 7 16 18 30 24 48
22 25 32 -76 32 -82 0 -100 -3 -100 -15z"/>
<path d="M2100 1426 c0 -8 11 -17 24 -20 l25 -6 3 -203 c2 -111 1 -207 0 -214
-2 -7 -12 -15 -23 -18 -10 -4 -19 -13 -19 -21 0 -11 19 -14 95 -14 78 0 95 3
95 15 0 8 -7 15 -15 15 -24 0 -35 35 -35 109 l0 71 30 0 c28 0 33 -7 80 -100
27 -54 59 -104 69 -110 22 -11 94 -14 105 -3 3 4 -7 20 -23 37 -16 17 -49 68
-74 114 l-46 82 30 16 c94 48 91 209 -6 250 -49 20 -315 20 -315 0z m257 -48
c28 -31 37 -80 23 -123 -15 -44 -44 -65 -92 -65 l-38 0 0 105 0 105 43 0 c32
0 49 -6 64 -22z"/>
<path d="M3080 1426 c0 -8 10 -18 23 -22 12 -4 25 -12 29 -18 4 -6 8 -102 8
-213 l0 -203 -25 -6 c-14 -3 -25 -12 -25 -20 0 -11 18 -14 80 -14 64 0 80 3
80 15 0 8 -8 15 -18 15 -38 0 -42 19 -42 184 0 140 2 158 14 146 15 -15 156
-210 223 -307 29 -43 41 -53 64 -53 l29 0 0 221 c0 228 5 259 40 259 11 0 20
7 20 15 0 12 -15 15 -75 15 -58 0 -75 -3 -75 -14 0 -8 9 -18 20 -21 19 -6 20
-15 20 -156 0 -82 -1 -149 -3 -149 -2 0 -57 76 -122 169 l-120 170 -72 0 c-57
1 -73 -2 -73 -13z"/>
<path d="M4110 1425 c0 -8 4 -15 9 -15 5 0 17 -7 25 -16 13 -13 16 -46 16
-205 0 -190 -6 -229 -35 -229 -8 0 -15 -7 -15 -15 0 -13 28 -15 189 -15 213 0
201 -6 201 86 0 56 -24 67 -44 20 -21 -51 -50 -66 -128 -66 l-68 0 0 100 0
100 39 0 c52 0 71 -8 71 -31 0 -11 7 -19 18 -19 14 0 17 10 17 67 0 55 -3 68
-17 71 -11 2 -18 -5 -20 -20 -3 -20 -9 -23 -55 -26 l-53 -3 0 95 0 96 56 0
c68 0 92 -12 110 -56 22 -52 34 -41 34 31 l0 65 -175 0 c-149 0 -175 -2 -175
-15z"/>
</g>
</svg>
